<?xml version="1.0" standalone="no"?>
<!DOCTYPE svg PUBLIC "-//W3C//DTD SVG 20010904//EN"
 "http://www.w3.org/TR/2001/REC-SVG-20010904/DTD/svg10.dtd">
<svg version="1.0" xmlns="http://www.w3.org/2000/svg"
 width="400.000000pt" height="400.000000pt" viewBox="0 0 400.000000 400.000000"
 preserveAspectRatio="xMidYMid meet">
<metadata>
Created by potrace 1.11, written by Peter Selinger 2001-2013
</metadata>
<g transform="translate(0.000000,400.000000) scale(0.100000,-0.100000)"
fill="#000000" stroke="none">
<path d="M1437 2398 c-3 -7 -100 -233 -216 -501 -116 -268 -211 -490 -211
-493 0 -3 33 -4 72 -2 l72 3 193 445 c106 245 204 471 218 503 l24 57 -73 0
c-50 0 -76 -4 -79 -12z"/>
<path d="M1963 2163 c-160 -54 -245 -209 -214 -388 20 -116 69 -182 166 -227
42 -19 67 -23 160 -23 65 0 125 6 148 13 l37 14 0 68 0 68 -61 -19 c-174 -54
-289 17 -289 180 0 165 114 237 289 182 l61 -19 0 73 c0 87 4 84 -145 91 -78
3 -111 0 -152 -13z"/>
<path d="M2618 2167 c-100 -29 -158 -95 -158 -181 0 -94 46 -139 192 -186 53
-17 108 -40 122 -51 31 -25 33 -59 5 -85 -30 -27 -181 -26 -261 3 l-58 20 0
-68 0 -68 43 -13 c23 -6 98 -12 167 -12 118 -1 128 1 183 27 78 39 112 89 111
166 0 105 -44 147 -206 195 -97 30 -138 57 -138 90 0 36 34 59 95 64 49 4 151
-9 191 -25 11 -4 14 8 14 55 0 53 -2 60 -22 66 -48 15 -233 16 -280 3z"/>
</g>
</svg>
